<svg xmlns="http://www.w3.org/2000/svg" viewBox="0 0 234 257">
  <defs>
    <style>
      .cls-1 {
        fill: #fff;
        stroke: #000;
        stroke-miterlimit: 10;
        stroke-width: 2px;
      }
    </style>
  </defs>
  <g id="Layer_1" data-name="Layer 1">
    <path d="M115,18c23.28,0,45.14,3.24,61.55,9.11C192.09,32.67,201,40.1,201,47.5s-8.91,14.83-24.45,20.39C160.14,73.76,138.28,77,115,77s-45.14-3.24-61.55-9.11C37.91,62.33,29,54.9,29,47.5s8.91-14.83,24.45-20.39C69.86,21.24,91.72,18,115,18m0-2C66.4,16,27,30.1,27,47.5S66.4,79,115,79s88-14.1,88-31.5S163.6,16,115,16Z"/>
    <path d="M115,59c23.28,0,45.14,3.24,61.55,9.11C192.09,73.67,201,81.1,201,88.5s-8.91,14.83-24.45,20.39C160.14,114.76,138.28,118,115,118s-45.14-3.24-61.55-9.11C37.91,103.33,29,95.9,29,88.5s8.91-14.83,24.45-20.39C69.86,62.24,91.72,59,115,59m0-2C66.4,57,27,71.1,27,88.5S66.4,120,115,120s88-14.1,88-31.5S163.6,57,115,57Z"/>
    <line class="cls-1" x1="49" y1="226" x2="203" y2="139.94"/>
  </g>
</svg>
